<svg width="217" height="71" viewBox="0 0 217 71" fill="none" xmlns="http://www.w3.org/2000/svg">
<path d="M66.2884 53.9519H68.6166C69.5338 53.9519 70.1688 54.0216 70.6627 54.0912C71.1566 54.1609 71.5799 54.3699 72.0032 54.5789C72.7793 54.9969 73.3437 55.624 73.767 56.5297C74.1903 57.3657 74.402 58.3411 74.402 59.4558C74.402 60.5705 74.1903 61.6155 73.6965 62.5909C73.4848 63.0786 73.132 63.4966 72.8498 63.8449C72.4971 64.1933 72.1443 64.5416 71.721 64.7506C71.2271 65.0293 70.7332 65.2383 70.1688 65.308C69.8866 65.3777 69.5338 65.3777 69.1105 65.4473C68.6872 65.4473 68.2639 65.517 67.6994 65.517H64.7362L66.2884 53.9519ZM67.8406 55.5543L66.7823 63.8449H68.1228C69.1105 63.8449 69.816 63.7753 70.3805 63.5663C70.8743 63.3573 71.3682 63.0089 71.7915 62.5212C72.4971 61.6852 72.8498 60.5705 72.8498 59.3164C72.8498 58.5501 72.7087 57.8534 72.356 57.2264C72.0737 56.5993 71.6504 56.1813 71.086 55.9026C70.5921 55.624 69.816 55.5543 68.8283 55.5543H67.8406Z" fill="#5C210B"/>
<path d="M78.0708 58.4108L77.2242 65.4474H75.5309L76.3775 58.4108H78.0708ZM78.5647 55.0666C78.5647 55.2756 78.4941 55.4847 78.2825 55.6937C78.1414 55.833 77.9297 55.9723 77.6475 55.9723C77.4358 55.9723 77.1536 55.9027 77.0125 55.6937C76.8008 55.4847 76.7303 55.2756 76.7303 55.0666C76.7303 54.8576 76.8008 54.6486 77.0125 54.4396C77.1536 54.3003 77.3653 54.1609 77.6475 54.1609C77.8591 54.1609 78.1414 54.2306 78.2825 54.4396C78.4941 54.6486 78.5647 54.8576 78.5647 55.0666Z" fill="#5C210B"/>
<path d="M87.3133 58.4107L86.4666 65.4473C86.3961 65.8654 86.3255 66.2137 86.255 66.5621C86.1844 66.8407 86.1139 67.1194 86.0433 67.3284C85.9022 67.7464 85.62 68.1645 85.2672 68.4431C84.5617 69.0702 83.715 69.3488 82.6567 69.3488C81.5279 69.3488 80.6813 69.0701 79.9757 68.5128C79.623 68.2341 79.4113 67.8858 79.2702 67.5374C79.1291 67.1891 79.0585 66.7014 79.0585 66.144H80.6813C80.7518 66.7711 80.8929 67.2587 81.1751 67.6071C81.4573 67.8858 81.9512 68.0251 82.5862 68.0251C83.2917 68.0251 83.7856 67.8161 84.1384 67.4678C84.4911 67.1194 84.7028 66.5621 84.8439 65.726L84.985 64.7507C84.2795 65.308 83.5739 65.517 82.7979 65.517C81.8101 65.517 81.034 65.1687 80.399 64.5416C79.7641 63.845 79.4819 63.0786 79.4819 62.0336C79.4819 60.9188 79.8346 60.0131 80.5401 59.2468C81.2457 58.4804 82.1629 58.1321 83.2917 58.1321C83.7856 58.1321 84.2795 58.2017 84.5617 58.3411C84.9145 58.4804 85.2672 58.7591 85.6905 59.1771L85.7611 58.3411H87.3133V58.4107ZM85.4083 61.7549C85.4083 61.1279 85.1967 60.6402 84.8439 60.2222C84.4206 59.8041 83.9267 59.6648 83.2917 59.6648C82.6567 59.6648 82.0923 59.8738 81.669 60.3615C81.2457 60.8492 81.034 61.4065 81.034 62.1729C81.034 62.7999 81.2457 63.2876 81.5984 63.7056C81.9512 64.054 82.4451 64.263 83.0801 64.263C83.7856 64.263 84.35 64.054 84.7733 63.5663C85.1967 63.0786 85.4083 62.4516 85.4083 61.7549Z" fill="#5C210B"/>
<path d="M91.1231 58.4108L90.2765 65.4474H88.5832L89.4298 58.4108H91.1231ZM91.617 55.0666C91.617 55.2756 91.5464 55.4847 91.3348 55.6937C91.1937 55.833 90.982 55.9723 90.6998 55.9723C90.4176 55.9723 90.2059 55.9027 90.0648 55.6937C89.9237 55.4847 89.7826 55.2756 89.7826 55.0666C89.7826 54.8576 89.8532 54.6486 90.0648 54.4396C90.2059 54.3003 90.4176 54.1609 90.6998 54.1609C90.9115 54.1609 91.1937 54.2306 91.3348 54.4396C91.5464 54.6486 91.617 54.8576 91.617 55.0666Z" fill="#5C210B"/>
<path d="M94.8625 59.9435L94.157 65.4474H92.4637L93.1692 59.9435H92.252L92.4637 58.4108H93.3809L93.8042 55.1363H95.4975L95.0741 58.4108H96.6263L96.4147 59.9435H94.8625Z" fill="#5C210B"/>
<path d="M104.81 58.4107L103.964 65.4473H102.271L102.341 64.681C101.636 65.308 100.859 65.5867 100.154 65.5867C99.2368 65.5867 98.4607 65.2383 97.8257 64.6113C97.2613 63.9843 96.9085 63.1482 96.9085 62.1729C96.9085 60.9885 97.2613 60.0828 97.8963 59.3164C98.6018 58.5501 99.4484 58.2017 100.507 58.2017C101.001 58.2017 101.424 58.2714 101.777 58.4804C102.129 58.6197 102.482 58.8984 102.906 59.3164L103.047 58.4107H104.81ZM102.835 61.6852C102.835 61.0582 102.623 60.5705 102.271 60.1525C101.918 59.7344 101.424 59.5951 100.859 59.5951C100.225 59.5951 99.7306 59.8041 99.3073 60.2918C98.884 60.7795 98.6723 61.4065 98.6723 62.1032C98.6723 62.7302 98.8134 63.2179 99.1662 63.6359C99.519 64.0539 99.9423 64.1933 100.507 64.1933C101.142 64.1933 101.636 63.9146 102.129 63.4269C102.623 63.0089 102.835 62.3819 102.835 61.6852Z" fill="#5C210B"/>
<path d="M109.326 52.8372L107.774 65.3777H106.08L107.633 52.8372H109.326Z" fill="#5C210B"/>
<path d="M122.237 55.415L121.108 56.5297C120.544 55.7633 119.909 55.3453 119.203 55.3453C118.709 55.3453 118.286 55.4847 117.933 55.833C117.581 56.1117 117.439 56.5297 117.439 57.0174C117.439 57.3657 117.581 57.7141 117.792 57.9927C117.933 58.1321 118.074 58.2714 118.286 58.4108C118.498 58.5501 118.78 58.7591 119.133 58.9681C120.121 59.5255 120.826 60.0828 121.108 60.5008C121.461 60.9885 121.602 61.6155 121.602 62.3819C121.602 63.3573 121.249 64.1933 120.614 64.8203C119.979 65.4473 119.133 65.726 118.004 65.726C117.157 65.726 116.381 65.517 115.817 65.1687C115.535 64.9597 115.252 64.7507 114.97 64.472C114.688 64.1933 114.476 63.845 114.194 63.4269L115.535 62.5212C115.887 63.1483 116.24 63.5663 116.593 63.7753C116.946 63.9843 117.369 64.1236 117.933 64.1236C118.568 64.1236 118.992 63.9843 119.344 63.6359C119.697 63.2876 119.838 62.8696 119.838 62.3122C119.838 61.8942 119.697 61.5459 119.486 61.2672C119.344 61.1279 119.203 60.9885 118.921 60.7795C118.639 60.5705 118.357 60.4312 118.004 60.1525C117.157 59.6648 116.522 59.1771 116.17 58.6894C115.817 58.2017 115.676 57.6444 115.676 56.9477C115.676 56.042 116.028 55.2756 116.663 54.6486C117.298 54.0216 118.145 53.7429 119.133 53.7429C119.768 53.7429 120.332 53.8823 120.755 54.1609C121.249 54.3699 121.743 54.788 122.237 55.415Z" fill="#5C210B"/>
<path d="M124.636 62.5212C124.636 63.0089 124.848 63.4269 125.2 63.7753C125.553 64.1236 126.047 64.2629 126.611 64.2629C127.387 64.2629 127.952 63.9843 128.375 63.4269L129.645 64.1236C129.222 64.681 128.799 65.099 128.305 65.308C127.811 65.517 127.246 65.6563 126.541 65.6563C125.412 65.6563 124.565 65.308 123.93 64.681C123.295 64.0539 122.943 63.2179 122.943 62.1032C122.943 60.9885 123.295 60.0131 124.001 59.3164C124.706 58.5501 125.624 58.2017 126.682 58.2017C127.74 58.2017 128.587 58.5501 129.151 59.2468C129.786 59.9434 130.069 60.8492 130.069 61.9639C130.069 62.1032 130.069 62.2425 130.069 62.5212H124.636ZM128.446 61.1975C128.305 60.0828 127.67 59.5951 126.611 59.5951C125.624 59.5951 124.989 60.1525 124.706 61.1975H128.446Z" fill="#5C210B"/>
<path d="M133.949 58.4107L133.878 59.0378C134.443 58.4804 135.007 58.2714 135.572 58.2714C136.066 58.2714 136.559 58.4804 136.912 58.8288L135.854 60.1525C135.572 59.8738 135.219 59.7345 134.937 59.7345C134.725 59.7345 134.513 59.8041 134.372 59.8738C134.231 59.9435 134.09 60.0828 133.949 60.2918C133.808 60.5008 133.737 60.7098 133.667 60.9885C133.596 61.2672 133.526 61.6155 133.455 61.9639L133.032 65.4473H131.339L132.185 58.4107H133.949Z" fill="#5C210B"/>
<path d="M144.885 58.4107L140.017 66.3531L137.477 58.4107H139.24L140.44 62.8696L142.98 58.4107H144.885Z" fill="#5C210B"/>
<path d="M147.636 58.4108L146.79 65.4474H145.096L145.943 58.4108H147.636ZM148.13 55.0666C148.13 55.2756 148.06 55.4847 147.848 55.6937C147.707 55.833 147.495 55.9723 147.213 55.9723C147.001 55.9723 146.719 55.9027 146.578 55.6937C146.437 55.4847 146.296 55.2756 146.296 55.0666C146.296 54.8576 146.366 54.6486 146.578 54.4396C146.719 54.3003 146.931 54.1609 147.213 54.1609C147.425 54.1609 147.707 54.2306 147.848 54.4396C148.06 54.6486 148.13 54.8576 148.13 55.0666Z" fill="#5C210B"/>
<path d="M155.044 59.1074L154.833 60.7795C154.48 60.3614 154.198 60.0131 153.845 59.8738C153.563 59.6648 153.21 59.5951 152.787 59.5951C152.152 59.5951 151.658 59.8041 151.235 60.2918C150.811 60.7795 150.6 61.3368 150.6 62.1032C150.6 62.7999 150.811 63.3572 151.164 63.7056C151.517 64.1236 152.081 64.3326 152.646 64.3326C153.21 64.3326 153.845 64.0539 154.48 63.5662L154.268 65.308C153.633 65.5866 152.998 65.726 152.434 65.726C151.376 65.726 150.529 65.3776 149.894 64.7506C149.259 64.0539 148.906 63.2179 148.906 62.1728C148.906 61.0581 149.259 60.1524 149.965 59.4557C150.67 58.6894 151.517 58.341 152.575 58.341C153.422 58.2017 154.268 58.4804 155.044 59.1074Z" fill="#5C210B"/>
<path d="M157.514 62.5212C157.514 63.0089 157.725 63.4269 158.078 63.7753C158.431 64.1236 158.925 64.2629 159.489 64.2629C160.265 64.2629 160.83 63.9843 161.253 63.4269L162.523 64.1236C162.1 64.681 161.676 65.099 161.183 65.308C160.689 65.517 160.124 65.6563 159.419 65.6563C158.29 65.6563 157.443 65.308 156.808 64.681C156.173 64.0539 155.82 63.2179 155.82 62.1032C155.82 60.9885 156.173 60.0131 156.879 59.3164C157.584 58.5501 158.502 58.2017 159.56 58.2017C160.618 58.2017 161.465 58.5501 162.029 59.2468C162.664 59.9434 162.946 60.8492 162.946 61.9639C162.946 62.1032 162.946 62.2425 162.946 62.5212H157.514ZM161.324 61.1975C161.183 60.0828 160.548 59.5951 159.489 59.5951C158.502 59.5951 157.867 60.1525 157.584 61.1975H161.324Z" fill="#5C210B"/>
<path d="M170.496 53.9519H172.824C173.741 53.9519 174.376 54.0216 174.87 54.0912C175.364 54.1609 175.787 54.3699 176.21 54.5789C176.986 54.9969 177.551 55.624 177.974 56.5297C178.397 57.3657 178.609 58.3411 178.609 59.4558C178.609 60.5705 178.397 61.6155 177.904 62.5909C177.692 63.0786 177.339 63.4966 177.057 63.8449C176.704 64.1933 176.351 64.5416 175.928 64.7506C175.434 65.0293 174.94 65.2383 174.376 65.308C174.094 65.3777 173.741 65.3777 173.318 65.4473C172.894 65.4473 172.471 65.517 171.907 65.517H168.943L170.496 53.9519ZM171.977 55.5543L170.919 63.8449H172.259C173.247 63.8449 173.953 63.7753 174.517 63.5663C175.011 63.3573 175.505 63.0089 175.928 62.5212C176.634 61.6852 176.986 60.5705 176.986 59.3164C176.986 58.5501 176.845 57.8534 176.493 57.2264C176.21 56.5993 175.787 56.1813 175.223 55.9026C174.729 55.624 173.953 55.5543 172.965 55.5543H171.977Z" fill="#5C210B"/>
<path d="M181.361 62.5212C181.361 63.0089 181.572 63.4269 181.925 63.7753C182.278 64.1236 182.772 64.2629 183.336 64.2629C184.112 64.2629 184.677 63.9843 185.1 63.4269L186.37 64.1236C185.947 64.681 185.523 65.099 185.03 65.308C184.536 65.517 183.971 65.6563 183.266 65.6563C182.137 65.6563 181.29 65.308 180.655 64.681C180.02 64.0539 179.667 63.2179 179.667 62.1032C179.667 60.9885 180.02 60.0131 180.726 59.3164C181.431 58.5501 182.348 58.2017 183.407 58.2017C184.465 58.2017 185.312 58.5501 185.876 59.2468C186.511 59.9434 186.793 60.8492 186.793 61.9639C186.793 62.1032 186.793 62.2425 186.793 62.5212H181.361ZM185.171 61.1975C185.03 60.0828 184.395 59.5951 183.336 59.5951C182.348 59.5951 181.714 60.1525 181.431 61.1975H185.171Z" fill="#5C210B"/>
<path d="M193.214 59.1771L192.297 60.0828C191.873 59.6648 191.45 59.5254 191.097 59.5254C190.815 59.5254 190.603 59.5951 190.462 59.7344C190.321 59.8738 190.18 60.0828 190.18 60.2918C190.18 60.5008 190.25 60.6401 190.392 60.7795C190.533 60.9188 190.815 61.1278 191.238 61.3368C191.873 61.6852 192.297 62.0335 192.508 62.3122C192.72 62.5909 192.861 62.9392 192.861 63.4269C192.861 64.1236 192.649 64.6113 192.155 65.0293C191.662 65.4473 191.027 65.6563 190.321 65.6563C189.263 65.6563 188.416 65.1686 187.711 64.2629L188.769 63.4966C189.192 64.0539 189.686 64.2629 190.18 64.2629C190.462 64.2629 190.674 64.1933 190.885 64.0539C191.027 63.9146 191.168 63.7056 191.168 63.4966C191.168 63.2876 191.097 63.1482 190.956 63.0089C190.885 62.9392 190.744 62.8696 190.603 62.7302C190.462 62.5909 190.18 62.4515 189.898 62.3122C189.333 62.0335 188.981 61.7548 188.769 61.4762C188.557 61.1975 188.487 60.8491 188.487 60.4311C188.487 59.8041 188.698 59.2468 189.192 58.8287C189.686 58.4107 190.25 58.2017 191.027 58.2017C191.803 58.2017 192.579 58.5501 193.214 59.1771Z" fill="#5C210B"/>
<path d="M196.741 58.4108L195.895 65.4474H194.201L195.048 58.4108H196.741ZM197.235 55.0666C197.235 55.2756 197.165 55.4847 196.953 55.6937C196.812 55.833 196.6 55.9723 196.318 55.9723C196.106 55.9723 195.824 55.9027 195.683 55.6937C195.542 55.4847 195.401 55.2756 195.401 55.0666C195.401 54.8576 195.471 54.6486 195.683 54.4396C195.824 54.3003 196.036 54.1609 196.318 54.1609C196.53 54.1609 196.812 54.2306 196.953 54.4396C197.165 54.6486 197.235 54.8576 197.235 55.0666Z" fill="#5C210B"/>
<path d="M205.984 58.4107L205.137 65.4473C205.067 65.8654 204.996 66.2137 204.926 66.5621C204.855 66.8407 204.784 67.1194 204.714 67.3284C204.573 67.7464 204.291 68.1645 203.938 68.4431C203.232 69.0702 202.386 69.3488 201.327 69.3488C200.198 69.3488 199.352 69.0701 198.646 68.5128C198.294 68.2341 198.082 67.8858 197.941 67.5374C197.8 67.1891 197.729 66.7014 197.729 66.144H199.352C199.422 66.7711 199.564 67.2587 199.846 67.6071C200.128 67.8858 200.622 68.0251 201.257 68.0251C201.962 68.0251 202.456 67.8161 202.809 67.4678C203.162 67.1194 203.373 66.5621 203.514 65.726L203.656 64.7507C202.95 65.308 202.245 65.517 201.468 65.517C200.481 65.517 199.705 65.1687 199.07 64.5416C198.435 63.845 198.152 63.0786 198.152 62.0336C198.152 60.9188 198.505 60.0131 199.211 59.2468C199.916 58.4804 200.833 58.1321 201.962 58.1321C202.456 58.1321 202.95 58.2017 203.232 58.3411C203.585 58.4804 203.938 58.7591 204.361 59.1771L204.432 58.3411H205.984V58.4107ZM204.079 61.7549C204.079 61.1279 203.867 60.6402 203.514 60.2222C203.091 59.8041 202.597 59.6648 201.962 59.6648C201.327 59.6648 200.763 59.8738 200.34 60.3615C199.916 60.8492 199.705 61.4065 199.705 62.1729C199.705 62.7999 199.916 63.2876 200.269 63.7056C200.622 64.054 201.116 64.263 201.751 64.263C202.456 64.263 203.021 64.054 203.444 63.5663C203.867 63.0786 204.079 62.4516 204.079 61.7549Z" fill="#5C210B"/>
<path d="M209.794 58.4107L209.723 59.0377C210.358 58.4804 211.064 58.2017 211.699 58.2017C212.404 58.2017 212.969 58.4107 213.392 58.7591C213.815 59.1074 214.027 59.6648 214.027 60.2918C214.027 60.6401 214.027 61.0582 213.956 61.5458L213.462 65.308H211.84L212.334 61.1975C212.334 61.0582 212.334 60.9188 212.404 60.7795C212.404 60.6401 212.404 60.5705 212.404 60.4311C212.404 59.8041 212.051 59.4558 211.346 59.4558C210.923 59.4558 210.57 59.5951 210.217 59.8738C209.935 60.0828 209.794 60.2918 209.653 60.6401C209.582 60.7795 209.511 60.9885 209.511 61.1975C209.441 61.4065 209.441 61.6852 209.37 61.9639L208.947 65.308H207.254L208.1 58.2714H209.794V58.4107Z" fill="#5C210B"/>
<path fill-rule="evenodd" clip-rule="evenodd" d="M168.239 17.9638H160.397C159.542 17.9638 158.829 17.75 158.401 17.3223C157.902 16.8946 157.688 16.3243 157.688 15.5401V8.48291C157.688 6.77207 158.259 5.34637 159.399 4.27709C160.469 3.2791 162.037 2.70882 164.033 2.70882H165.387C165.53 2.70882 165.673 2.70882 165.815 2.63753C165.958 2.63753 166.1 2.56625 166.172 2.56625C166.671 2.42368 167.098 2.06725 167.098 1.56825C167.098 1.49697 167.098 1.3544 167.098 1.28311C167.098 1.21183 167.027 1.14054 167.027 1.06926C166.813 0.641547 166.243 0.356407 165.601 0.285122L163.391 0.0712662C163.177 0.0712662 163.106 0.0712662 163.035 0.0712662C162.964 0.0712662 162.892 0.0712662 162.678 0.0712662C162.536 0.0712662 162.393 0.0712662 162.322 0.0712662C161.966 0.0712662 161.609 0.0712662 161.253 0.0712662C161.039 0.0712662 160.754 0.0712662 160.469 0.0712662C159.542 0.0712662 158.686 0.213836 157.902 0.356407C157.118 0.498977 156.405 0.712833 155.692 0.997973C152.413 2.35239 150.488 5.06123 150.488 8.69677L150.203 36.0703C150.203 37.2108 150.203 40.9177 151.059 42.4859C151.059 42.5572 151.13 42.6285 151.201 42.6998C151.344 42.9136 151.629 42.9849 151.843 43.0562C152.128 43.1275 152.342 43.0562 152.627 42.9136C152.698 42.9136 152.841 42.8424 152.912 42.7711C152.983 42.6998 153.126 42.5572 153.268 42.4146C153.411 42.2008 153.482 41.9869 153.625 41.7018C155.193 36.2841 155.692 31.0803 156.975 25.8765C157.973 21.4568 157.973 21.3142 163.249 21.3142H168.453C168.667 21.3142 168.809 21.3142 169.023 21.243C169.166 21.243 169.379 21.1717 169.522 21.1004C170.235 20.8865 170.805 20.3162 170.877 19.746V19.6747C170.877 19.247 170.663 18.8905 170.235 18.6054C169.807 18.249 169.237 18.0351 168.595 18.0351H168.239V17.9638ZM185.205 6.77207H185.063C184.207 6.77207 183.281 7.05721 182.639 7.48492C181.997 7.91263 181.57 8.48291 181.57 9.19577V9.26705L182.71 29.0843C182.71 30.0823 183.352 30.7239 184.136 31.009C184.492 31.1516 184.849 31.2229 185.277 31.2229C185.776 31.2229 186.275 31.1516 186.702 30.8665C187.344 30.5813 187.772 29.9397 187.843 29.1556L188.984 9.33834V9.26705C188.984 8.5542 188.556 7.91263 187.914 7.55621C187.201 7.1285 186.346 6.84336 185.491 6.84336H185.205V6.77207ZM213.15 30.2962C210.726 30.2962 209.015 29.8685 207.875 29.0843C206.663 28.2289 206.093 26.9458 206.093 25.3062V14.756C206.093 14.1144 206.307 13.5442 206.806 13.1877C207.233 12.8313 207.875 12.6175 208.659 12.6175H212.509H212.651C213.221 12.5462 213.72 12.4036 214.077 12.1185C214.362 11.9046 214.576 11.6195 214.576 11.3343V11.263C214.505 10.0512 212.366 10.0512 211.083 10.0512C208.873 10.0512 207.661 9.62348 206.948 8.76805C206.235 7.91263 206.093 6.77207 206.093 5.27508C206.093 4.7048 205.95 4.27709 205.594 3.99195C205.237 3.70681 204.667 3.49295 203.811 3.49295C201.174 3.49295 200.96 6.6295 200.889 8.48291V8.62548L199.962 25.0924C199.677 30.51 204.168 31.8644 209.158 32.1496C211.225 32.2209 213.364 32.1496 215.289 32.0783H215.717C215.859 32.0783 215.93 32.0783 216.073 32.007C216.216 32.007 216.287 31.9357 216.358 31.9357C216.786 31.7219 217 31.4367 217 31.0803C217 30.3675 215.645 30.2962 214.576 30.2962C214.219 30.2962 214.006 30.2962 213.792 30.2962C213.507 30.2962 213.221 30.2962 213.15 30.2962Z" fill="#F5C400"/>
<path fill-rule="evenodd" clip-rule="evenodd" d="M125.822 9.97993C125.466 10.1225 125.18 10.3364 124.967 10.5502C124.753 10.7641 124.468 10.9779 124.325 11.1918C124.04 11.5482 123.755 11.9759 123.612 12.4036C123.612 12.4749 123.541 12.5462 123.541 12.6175C123.398 13.1165 123.327 13.5442 123.327 13.9006V14.0432V14.6135V14.756C123.327 15.1125 123.47 15.4689 123.683 15.754C123.755 15.8253 123.755 15.8966 123.826 15.8966C123.897 15.9679 123.897 15.9679 123.969 16.0392C124.111 16.1817 124.325 16.3243 124.468 16.3956C124.468 16.3956 124.539 16.3956 124.61 16.4669C124.824 16.5382 125.109 16.6094 125.394 16.6094H125.466H125.679H131.953H132.024C132.452 16.6094 132.88 16.4669 133.165 16.253C133.236 16.1817 133.307 16.1817 133.307 16.1105C133.379 16.0392 133.379 15.9679 133.45 15.9679C133.592 15.754 133.735 15.4689 133.806 15.255C133.806 15.1837 133.806 15.1125 133.878 15.0412C133.878 14.9699 133.878 14.8986 133.878 14.8273C133.878 14.756 133.878 14.6135 133.878 14.5422V14.3996V13.8293C133.878 12.9739 133.592 12.0472 132.951 11.2631C132.808 11.1205 132.666 10.9779 132.523 10.8354C132.38 10.6928 132.238 10.5502 132.024 10.4076C131.881 10.3364 131.739 10.2651 131.596 10.1938C131.454 10.1225 131.311 10.0512 131.169 9.97993C129.458 9.33836 127.39 9.26708 125.822 9.97993ZM106.646 6.55824C106.075 6.55824 105.648 6.62953 105.291 6.7721C105.22 6.7721 105.149 6.84338 105.077 6.84338C104.721 6.98595 104.436 7.27109 104.293 7.55624L98.3049 18.249C97.9485 18.9619 97.4495 19.4609 96.8792 19.746C96.5227 19.8886 96.095 20.0311 95.7386 20.0311C95.3821 20.0311 94.9544 19.9598 94.598 19.8173C93.8851 19.5321 93.2435 19.0331 92.8158 18.249C92.2455 17.3936 91.7465 16.253 91.1762 14.9699C89.5365 11.3343 87.3266 6.62953 83.6196 6.62953C79.984 6.62953 78.7721 10.4789 77.6315 13.9719C76.9899 15.9679 76.4196 17.8926 75.3503 18.9619C75.279 19.0331 75.1364 19.1757 75.0651 19.247C74.9225 19.3183 74.8513 19.4609 74.7087 19.5321C73.9958 20.0311 72.9978 20.245 72.071 19.746C71.3581 19.3896 71.0017 18.8906 70.7166 18.3916L70.6453 18.249C69.6472 16.752 68.7205 14.9699 67.865 13.1165C66.867 11.1205 65.7977 9.05322 64.7284 7.48495L64.6571 7.41366C64.6571 7.34238 64.5858 7.27109 64.5145 7.12852C64.3007 7.27109 64.1581 7.19981 64.1581 7.12852C63.7304 6.7721 63.0888 6.55824 62.162 6.55824C61.8056 6.55824 61.5204 6.62953 61.3066 6.70081C61.0927 6.7721 60.9501 6.91467 60.8076 7.05724C60.7363 7.12852 60.665 7.27109 60.665 7.41366C60.665 7.55623 60.665 7.62752 60.7363 7.77009L71.0017 30.2249C71.2156 30.6526 71.5007 30.9378 71.7859 31.1516C71.9284 31.2229 72.1423 31.2942 72.3562 31.2942C72.57 31.2942 72.7839 31.2942 72.9978 31.1516C73.6394 30.9378 74.2809 30.2962 74.9225 29.2982V29.2269C75.1364 28.8705 75.6354 27.9438 76.2057 26.7319C78.0592 23.0964 80.982 17.251 83.1206 17.0372C86.685 16.6094 87.9682 20.4588 89.3227 24.3795C90.4633 27.8012 91.6752 31.2942 94.2415 31.3655H94.3128C94.5267 31.3655 94.7405 31.3655 94.9544 31.2942C95.1683 31.2229 95.3821 31.1516 95.596 31.0803C96.6653 30.5813 97.4495 29.5121 97.9485 28.5854L108 7.84138C108.071 7.69881 108.071 7.55623 108.071 7.48495C108.071 7.34238 108 7.19981 107.929 7.12852C107.857 6.98595 107.715 6.84338 107.501 6.7721C107.287 6.62953 107.002 6.55824 106.646 6.55824ZM128.103 19.6747H126.107C125.822 19.6747 125.537 19.6747 125.323 19.746C125.109 19.8173 124.895 19.8886 124.753 20.0311C124.61 20.1737 124.468 20.3876 124.396 20.6014C124.325 20.8153 124.254 21.1004 124.254 21.3856C124.254 21.5994 124.254 21.8133 124.254 21.9558C124.254 22.241 124.254 22.5261 124.254 22.8825V23.0251V23.5954V23.738V23.8805V24.3795C124.254 25.1637 124.468 25.8765 124.681 26.4468C124.967 27.0171 125.394 27.5161 125.965 27.9438C126.464 28.3002 127.176 28.5854 127.961 28.7992C128.745 29.0131 129.672 29.0843 130.812 29.0843C130.812 29.0843 130.883 29.0843 131.026 29.0843H131.169H131.311H131.382C131.596 29.0843 131.81 29.0843 132.167 29.0843C132.737 29.0843 133.307 29.0843 133.806 29.2269C134.305 29.3695 134.733 29.6546 134.733 30.0823C134.733 30.3675 134.59 30.6526 134.305 30.8665C134.234 30.9378 134.234 30.9378 134.163 31.009C134.091 31.009 134.02 31.0803 133.949 31.0803C133.878 31.0803 133.806 31.1516 133.735 31.1516H133.664H133.592C133.521 31.1516 133.45 31.1516 133.379 31.2229H133.236H132.808C119.976 31.7932 118.337 28.1576 117.838 19.3183C117.766 17.8926 117.695 16.5382 117.624 15.1125C117.624 13.1878 118.337 11.6195 119.549 10.3364C119.763 10.0512 120.048 9.83736 120.333 9.6235C120.618 9.40965 120.903 9.19579 121.188 8.98194C125.394 6.13053 130.955 5.63154 135.375 8.41166C135.731 8.62551 136.016 8.83937 136.301 9.12451C137.798 10.3364 138.868 12.0472 139.367 14.257C139.438 14.6847 139.581 15.1125 139.581 15.6115C139.652 16.0392 139.652 16.5382 139.652 17.0372V17.1797V17.3223V17.4649C139.581 17.75 139.509 18.0352 139.367 18.249C139.295 18.3203 139.295 18.3916 139.224 18.4629C139.153 18.5341 139.082 18.6054 139.01 18.6767C138.939 18.748 138.868 18.8193 138.796 18.8906C138.511 19.1044 138.226 19.247 137.87 19.3896C137.798 19.3896 137.727 19.4609 137.656 19.4609C137.157 19.6034 136.515 19.6747 136.016 19.6747H128.103Z" fill="#5C210B"/>
<path fill-rule="evenodd" clip-rule="evenodd" d="M34.1465 2.63756C43.9843 8.34037 47.1922 21.243 41.204 31.5793C34.2891 43.5552 24.594 38.4227 18.0355 49.757C15.2553 54.5331 9.26712 56.3153 4.7047 53.6777C0.14228 51.0402 -1.35476 44.9096 1.42546 40.1335C7.98394 28.7992 -1.35476 22.9538 5.56015 10.9779C11.477 0.71286 24.3088 -2.99397 34.1465 2.63756ZM11.4057 41.987C13.6157 43.2701 14.3998 46.1215 13.1167 48.3313C11.8335 50.5412 8.98197 51.3253 6.77204 50.0422C4.56212 48.759 3.77796 45.9076 5.06114 43.6978C6.34432 41.488 9.19583 40.7038 11.4057 41.987ZM27.5881 26.5181C22.5979 35.2149 16.1107 40.7751 13.1167 39.0643C10.1226 37.3534 11.7622 28.8705 16.7523 20.245C28.0871 0.499003 38.9941 6.7721 27.5881 26.5181Z" fill="#F5C400"/>
</svg>
